<svg width="40" height="40" viewBox="0 0 40 40" fill="none" xmlns="http://www.w3.org/2000/svg">
<path d="M0 20C0 8.95431 8.95431 0 20 0C31.0457 0 40 8.95431 40 20C40 31.0457 31.0457 40 20 40C8.95431 40 0 31.0457 0 20Z" fill="#007AFF" fill-opacity="0.3"/>
<path d="M4 20C4 11.1634 11.1634 4 20 4C28.8366 4 36 11.1634 36 20C36 28.8366 28.8366 36 20 36C11.1634 36 4 28.8366 4 20Z" fill="#007AFF" fill-opacity="0.5"/>
<path d="M8 20C8 13.3726 13.3726 8 20 8C26.6274 8 32 13.3726 32 20C32 26.6274 26.6274 32 20 32C13.3726 32 8 26.6274 8 20Z" fill="#007AFF"/>
<path d="M21.7417 22.2583L21.4245 22.5921C21.4245 22.5921 20.6708 23.3856 18.6135 21.2197C16.5563 19.0538 17.31 18.2603 17.31 18.2603L17.5097 18.05C18.0016 17.5321 18.048 16.7007 17.6188 16.0937L16.7409 14.852C16.2097 14.1007 15.1833 14.0015 14.5744 14.6425L13.4817 15.793C13.1798 16.1108 12.9775 16.5228 13.002 16.9798C13.0648 18.1491 13.5644 20.6649 16.3525 23.6002C19.3091 26.7129 22.0832 26.8367 23.2177 26.7247C23.5765 26.6893 23.8885 26.4958 24.14 26.231L25.129 25.1898C25.7966 24.487 25.6084 23.2821 24.7542 22.7904L23.4241 22.0248C22.8632 21.702 22.18 21.7968 21.7417 22.2583Z" fill="white"/>
<path d="M20.1433 13.4385C20.1894 13.1538 20.4585 12.9607 20.7432 13.0068C20.7608 13.0102 20.8175 13.0208 20.8472 13.0274C20.9066 13.0406 20.9895 13.061 21.0928 13.0911C21.2994 13.1513 21.5881 13.2504 21.9345 13.4092C22.6281 13.7272 23.5512 14.2835 24.509 15.2413C25.4668 16.1992 26.0231 17.1222 26.3411 17.8158C26.4999 18.1622 26.5991 18.4509 26.6592 18.6575C26.6893 18.7608 26.7097 18.8437 26.7229 18.9031C26.7295 18.9328 26.7344 18.9567 26.7378 18.9743L26.7418 18.996C26.7878 19.2807 26.5965 19.5609 26.3118 19.607C26.028 19.6529 25.7606 19.4608 25.7134 19.1774C25.7119 19.1698 25.7079 19.1494 25.7036 19.1301C25.695 19.0916 25.6802 19.0304 25.6566 18.9496C25.6095 18.7878 25.5277 18.5474 25.3918 18.251C25.1204 17.659 24.6324 16.8416 23.7705 15.9798C22.9088 15.118 22.0913 14.6299 21.4993 14.3585C21.2029 14.2227 20.9625 14.1408 20.8007 14.0937C20.7199 14.0702 20.6183 14.0468 20.5797 14.0382C20.2963 13.991 20.0974 13.7223 20.1433 13.4385Z" fill="white"/>
<path fill-rule="evenodd" clip-rule="evenodd" d="M20.3015 15.8398C20.3807 15.5625 20.6697 15.4019 20.947 15.4812L20.948 15.4814L20.9491 15.4818L20.9514 15.4824L20.9568 15.484L20.9706 15.4883C20.981 15.4917 20.9942 15.4961 21.0098 15.5016C21.041 15.5127 21.0824 15.5285 21.1331 15.5502C21.2345 15.5937 21.3731 15.6608 21.5434 15.7616C21.8841 15.9632 22.3493 16.2982 22.8958 16.8447C23.4423 17.3912 23.7773 17.8564 23.9789 18.1972C24.0797 18.3674 24.1468 18.506 24.1903 18.6074C24.212 18.6581 24.2278 18.6994 24.2389 18.7307C24.2445 18.7463 24.2488 18.7595 24.2522 18.77L24.2565 18.7837L24.2581 18.7891L24.2587 18.7914L24.259 18.7925C24.259 18.7925 24.2594 18.7935 23.7573 18.937L24.2594 18.7935C24.3386 19.0708 24.178 19.3598 23.9008 19.4391C23.6258 19.5176 23.3393 19.3604 23.2573 19.0874L23.2547 19.0799C23.251 19.0695 23.2433 19.0489 23.2305 19.0188C23.2047 18.9587 23.158 18.8604 23.0803 18.7291C22.925 18.4668 22.6447 18.0705 22.1573 17.5832C21.6701 17.0959 21.2737 16.8155 21.0115 16.6603C20.8801 16.5826 20.7818 16.5358 20.7217 16.5101C20.6916 16.4972 20.671 16.4895 20.6606 16.4858L20.653 16.4832C20.3801 16.4012 20.2229 16.1147 20.3015 15.8398Z" fill="white"/>
</svg>
